<svg width="945" height="253" viewBox="0 0 945 253" fill="none" xmlns="http://www.w3.org/2000/svg">
<rect width="944.03" height="252.82" fill="white"/>
<path d="M241.5 130.231C245.96 130.231 249.103 129.501 250.93 128.041C251.736 127.49 252.403 126.758 252.877 125.904C253.351 125.05 253.619 124.097 253.66 123.121C253.688 122.278 253.501 121.442 253.118 120.69C252.735 119.938 252.168 119.295 251.47 118.821C249.571 117.552 247.5 116.562 245.32 115.881L239.58 113.961C235.58 112.628 231.937 111.238 228.65 109.791C225.588 108.514 222.734 106.789 220.18 104.671C217.834 102.708 215.944 100.258 214.64 97.4914C213.227 94.2884 212.544 90.8111 212.64 87.3114C212.531 83.722 213.287 80.1591 214.845 76.9235C216.403 73.6879 218.716 70.8747 221.59 68.7214C227.59 64.0547 235.95 61.7214 246.67 61.7214C250.329 61.7049 253.984 61.9791 257.6 62.5414C260.597 62.9783 263.518 63.8298 266.28 65.0714C268.497 66.0547 270.446 67.557 271.96 69.4514C273.325 71.2306 274.048 73.4193 274.01 75.6614C274.07 77.808 273.5 79.925 272.37 81.7514C271.294 83.4038 269.941 84.8584 268.37 86.0514C265.854 84.5617 263.141 83.4339 260.31 82.7014C256.703 81.7185 252.978 81.2373 249.24 81.2714C245.14 81.2714 242.14 81.8414 240.24 82.9814C238.32 84.1214 237.37 85.5514 237.37 87.2814C237.365 87.9426 237.524 88.5947 237.833 89.1793C238.142 89.7639 238.591 90.2628 239.14 90.6314C240.778 91.7064 242.578 92.5131 244.47 93.0214L251.72 95.3414C260.28 98.0814 266.864 101.615 271.47 105.941C276.077 110.268 278.377 116.075 278.37 123.361C278.403 127.024 277.61 130.647 276.05 133.961C274.451 137.254 272.081 140.112 269.14 142.291C265.736 144.793 261.888 146.625 257.8 147.691C252.743 149.041 247.524 149.687 242.29 149.611C238.371 149.643 234.457 149.308 230.6 148.611C227.335 148.044 224.163 147.035 221.17 145.611C218.721 144.48 216.568 142.796 214.88 140.691C213.386 138.758 212.593 136.375 212.63 133.931C212.567 131.47 213.39 129.067 214.95 127.161C216.35 125.422 218.067 123.963 220.01 122.861C222.865 125.032 226.017 126.78 229.37 128.051C233.238 129.543 237.355 130.283 241.5 130.231V130.231Z" fill="#006CB7"/>
<path d="M320.5 97.0214C318.287 97.0081 316.088 97.3769 314 98.1114C312.007 98.8066 310.189 99.9256 308.67 101.391C307.115 102.931 305.884 104.767 305.05 106.791C304.095 109.157 303.629 111.691 303.68 114.241C303.68 119.895 305.277 124.085 308.47 126.811C311.795 129.593 316.028 131.052 320.36 130.911C322.811 130.958 325.254 130.621 327.6 129.911C329.465 129.316 331.291 128.608 333.07 127.791C334.631 128.881 335.954 130.276 336.96 131.891C337.871 133.516 338.321 135.359 338.26 137.221C338.26 140.861 336.46 143.778 332.86 145.971C329.26 148.165 324.14 149.251 317.5 149.231C312.24 149.299 307.002 148.536 301.98 146.971C297.625 145.614 293.616 143.328 290.23 140.271C286.948 137.242 284.4 133.504 282.78 129.341C280.961 124.519 280.078 119.394 280.18 114.241C280.059 108.854 281.06 103.501 283.12 98.5214C284.924 94.2788 287.658 90.4958 291.12 87.4514C294.539 84.5054 298.514 82.2747 302.81 80.8914C307.329 79.4144 312.056 78.675 316.81 78.7014C323.37 78.7014 328.43 79.8848 331.99 82.2514C335.55 84.6181 337.327 87.6714 337.32 91.4114C337.328 93.1062 336.905 94.7751 336.09 96.2614C335.327 97.693 334.36 99.0065 333.22 100.161C331.4 99.3288 329.526 98.6206 327.61 98.0414C325.305 97.3437 322.908 96.9997 320.5 97.0214V97.0214Z" fill="#006CB7"/>
<path d="M342.5 62.3014C342.46 60.6836 342.748 59.0745 343.346 57.5708C343.944 56.0671 344.84 54.6999 345.98 53.5514C348.511 51.2655 351.8 50 355.21 50C358.62 50 361.909 51.2655 364.44 53.5514C366.675 55.9166 367.92 59.0473 367.92 62.3014C367.92 65.5555 366.675 68.6862 364.44 71.0514C361.909 73.3373 358.62 74.6028 355.21 74.6028C351.8 74.6028 348.511 73.3373 345.98 71.0514C344.84 69.9029 343.944 68.5357 343.346 67.032C342.748 65.5283 342.46 63.9192 342.5 62.3014ZM343.59 81.7114C345.009 81.3517 346.448 81.0779 347.9 80.8914C349.914 80.6046 351.946 80.4676 353.98 80.4814C358.54 80.4814 361.82 81.2314 363.82 82.7314C365.82 84.2414 366.82 87.1314 366.82 91.4114V147.041C365.4 147.395 363.961 147.669 362.51 147.861C360.496 148.143 358.464 148.28 356.43 148.271C351.87 148.271 348.59 147.518 346.59 146.011C344.59 144.505 343.59 141.611 343.59 137.331V81.7114Z" fill="#006CB7"/>
<path d="M393.94 147.861C391.926 148.143 389.894 148.28 387.86 148.271C383.3 148.271 380.02 147.518 378.02 146.011C376.02 144.505 375.02 141.611 375.02 137.331V58.0614C376.438 57.7114 377.873 57.4376 379.32 57.2414C381.338 56.9596 383.373 56.8225 385.41 56.8313C389.963 56.8313 393.243 57.5847 395.25 59.0913C397.25 60.5913 398.25 63.4913 398.25 67.7713V103.851L421.76 79.7914C426.5 79.7914 430.303 80.8414 433.17 82.9414C434.49 83.7992 435.576 84.9726 436.328 86.3555C437.081 87.7384 437.477 89.287 437.48 90.8614C437.495 92.1465 437.264 93.4227 436.8 94.6214C436.268 95.8821 435.554 97.0579 434.68 98.1114C433.555 99.4637 432.321 100.721 430.99 101.871C429.483 103.205 427.73 104.731 425.73 106.451L417.66 113.451L439.66 135.181C439.2 139.461 437.947 142.741 435.9 145.021C433.854 147.301 430.87 148.441 426.95 148.441C424.205 148.488 421.503 147.753 419.16 146.321C416.309 144.363 413.81 141.935 411.77 139.141L398.24 122.331V147.071C396.823 147.415 395.387 147.679 393.94 147.861V147.861Z" fill="#006CB7"/>
<path d="M443.21 62.3014C443.17 60.6836 443.458 59.0745 444.056 57.5708C444.654 56.0671 445.55 54.6999 446.69 53.5514C449.221 51.2655 452.51 50 455.92 50C459.33 50 462.619 51.2655 465.15 53.5514C467.385 55.9166 468.63 59.0473 468.63 62.3014C468.63 65.5555 467.385 68.6862 465.15 71.0514C462.619 73.3373 459.33 74.6028 455.92 74.6028C452.51 74.6028 449.221 73.3373 446.69 71.0514C445.55 69.9029 444.654 68.5357 444.056 67.032C443.458 65.5283 443.17 63.9192 443.21 62.3014ZM444.3 81.7114C445.719 81.3517 447.158 81.0779 448.61 80.8914C450.624 80.6041 452.656 80.467 454.69 80.4814C459.25 80.4814 462.53 81.2314 464.53 82.7314C466.53 84.2414 467.53 87.1314 467.53 91.4114V147.041C466.11 147.395 464.671 147.669 463.22 147.861C461.206 148.143 459.174 148.28 457.14 148.271C452.58 148.271 449.3 147.518 447.3 146.011C445.3 144.505 444.3 141.611 444.3 137.331V81.7114Z" fill="#006CB7"/>
<path d="M500.75 149.231C492.75 149.231 486.577 147.408 482.23 143.761C477.884 140.115 475.72 134.191 475.74 125.991V65.3114C476.74 65.0314 478.17 64.7414 480.04 64.4214C482.023 64.0906 484.03 63.93 486.04 63.9414C490.5 63.9414 493.734 64.7148 495.74 66.2614C497.747 67.8081 498.747 70.6781 498.74 74.8714V82.2514H516.64C517.271 83.4583 517.8 84.7161 518.22 86.0114C518.737 87.627 518.99 89.3153 518.97 91.0114C518.97 94.1981 518.264 96.4981 516.85 97.9114C516.1 98.6329 515.21 99.1932 514.234 99.5578C513.259 99.9223 512.22 100.084 511.18 100.031H498.7V124.361C498.7 126.728 499.45 128.415 500.95 129.421C502.88 130.528 505.09 131.049 507.31 130.921C508.73 130.919 510.148 130.805 511.55 130.581C512.846 130.392 514.124 130.094 515.37 129.691C516.206 130.721 516.918 131.845 517.49 133.041C518.116 134.436 518.42 135.953 518.38 137.481C518.422 139.098 518.094 140.703 517.419 142.173C516.745 143.643 515.743 144.939 514.49 145.961C511.89 148.135 507.31 149.225 500.75 149.231Z" fill="#006CB7"/>
<path d="M522.5 121.751C521.748 120.495 521.15 119.152 520.72 117.751C520.171 116.076 519.894 114.324 519.9 112.561C519.9 109.195 520.677 106.755 522.23 105.241C523.031 104.487 523.974 103.899 525.004 103.512C526.034 103.126 527.131 102.949 528.23 102.991H557.5C558.168 104.281 558.739 105.618 559.21 106.991C559.807 108.66 560.108 110.419 560.1 112.191C560.1 115.565 559.324 118.001 557.77 119.501C556.97 120.256 556.027 120.844 554.997 121.23C553.966 121.617 552.87 121.794 551.77 121.751H522.5Z" fill="#006CB7"/>
<path d="M590.13 121.481V147.041C588.602 147.411 587.052 147.685 585.49 147.861C583.358 148.135 581.21 148.272 579.06 148.271C574.234 148.271 570.9 147.451 569.06 145.811C567.22 144.171 566.284 141.211 566.25 136.931V72.1714C566.2 71.363 566.314 70.5529 566.586 69.7898C566.858 69.0267 567.281 68.3265 567.83 67.7314C569.054 66.5746 570.524 65.7098 572.13 65.2014C575.699 64.0065 579.387 63.2051 583.13 62.8114C586.962 62.3373 590.819 62.0868 594.68 62.0614C607.26 62.0614 616.874 64.7481 623.52 70.1214C630.167 75.4947 633.5 82.7847 633.52 91.9914C633.585 96.1593 632.721 100.289 630.99 104.081C629.322 107.66 626.896 110.833 623.88 113.381C620.602 116.101 616.815 118.141 612.74 119.381C608.009 120.852 603.075 121.567 598.12 121.501L590.13 121.481ZM596.56 102.761C600.38 102.761 603.44 101.821 605.71 99.9514C607.98 98.0814 609.13 95.4214 609.13 91.9514C609.13 88.4814 608.06 85.8214 605.92 83.9514C603.78 82.0814 600.66 81.1514 596.56 81.1514C595.1 81.1514 593.89 81.1514 592.94 81.2214C591.954 81.2727 590.972 81.3863 590 81.5614V102.751L596.56 102.761Z" fill="#006CB7"/>
<path d="M635.1 62.3014C635.06 60.6836 635.348 59.0745 635.946 57.5708C636.544 56.0671 637.44 54.6999 638.58 53.5514C641.111 51.2655 644.4 50 647.81 50C651.22 50 654.509 51.2655 657.04 53.5514C659.275 55.9166 660.52 59.0473 660.52 62.3014C660.52 65.5555 659.275 68.6862 657.04 71.0514C654.509 73.3373 651.22 74.6028 647.81 74.6028C644.4 74.6028 641.111 73.3373 638.58 71.0514C637.44 69.9029 636.544 68.5357 635.946 67.032C635.348 65.5283 635.06 63.9192 635.1 62.3014ZM636.19 81.7114C637.609 81.3517 639.048 81.0779 640.5 80.8914C642.514 80.6046 644.546 80.4676 646.58 80.4814C651.14 80.4814 654.42 81.2314 656.42 82.7314C658.42 84.2314 659.42 87.1247 659.42 91.4114V147.041C658 147.396 656.561 147.67 655.11 147.861C653.096 148.143 651.064 148.28 649.03 148.271C644.47 148.271 641.19 147.518 639.19 146.011C637.19 144.505 636.19 141.611 636.19 137.331V81.7114Z" fill="#006CB7"/>
<path d="M687.31 123.171C687.852 124.699 688.701 126.1 689.805 127.286C690.91 128.473 692.245 129.421 693.73 130.071C696.927 131.436 700.374 132.118 703.85 132.071C707.541 132.092 711.219 131.611 714.78 130.641C717.699 129.906 720.504 128.779 723.12 127.291C724.635 128.259 725.899 129.572 726.81 131.121C727.786 132.677 728.306 134.475 728.31 136.311C728.357 138.425 727.683 140.491 726.4 142.171C724.949 143.945 723.099 145.35 721 146.271C718.37 147.454 715.586 148.258 712.73 148.661C709.248 149.183 705.731 149.433 702.21 149.411C697.123 149.461 692.059 148.702 687.21 147.161C682.782 145.766 678.694 143.46 675.21 140.391C671.749 137.255 669.039 133.379 667.28 129.051C665.269 123.962 664.294 118.522 664.41 113.051C664.274 107.728 665.277 102.436 667.35 97.5314C669.134 93.4499 671.793 89.8107 675.14 86.8714C678.357 84.1038 682.098 82.0122 686.14 80.7214C690.2 79.4007 694.441 78.7258 698.71 78.7214C703.202 78.6639 707.668 79.4055 711.9 80.9114C715.663 82.2501 719.141 84.2856 722.15 86.9114C725.004 89.4424 727.268 92.5695 728.78 96.0714C730.352 99.7415 731.142 103.699 731.1 107.691C731.1 110.778 730.237 113.145 728.51 114.791C726.477 116.565 723.944 117.666 721.26 117.941L687.31 123.171ZM698.93 95.7014C695.742 95.6003 692.636 96.7238 690.25 98.8414C687.806 101.185 686.319 104.353 686.08 107.731L709.31 103.901C709.204 102.927 708.927 101.979 708.49 101.101C708.014 100.107 707.368 99.2033 706.58 98.4314C705.683 97.5548 704.614 96.8738 703.44 96.4314C701.999 95.8926 700.469 95.6281 698.93 95.6514V95.7014Z" fill="#006CB7"/>
<path d="M758.79 147.041C757.373 147.395 755.938 147.669 754.49 147.861C752.473 148.143 750.437 148.28 748.4 148.271C743.854 148.271 740.574 147.518 738.56 146.011C736.547 144.505 735.547 141.611 735.56 137.331V96.7414C735.504 94.2835 736.221 91.87 737.61 89.8414C739.101 87.7617 741.008 86.0147 743.21 84.7114C746.677 82.6903 750.434 81.2163 754.35 80.3414C758.72 79.3264 763.194 78.823 767.68 78.8414C777.614 78.8414 782.577 82.3481 782.57 89.3614C782.582 90.914 782.353 92.4591 781.89 93.9414C781.498 95.2122 780.947 96.4285 780.25 97.5614C777.766 97.1419 775.248 96.9611 772.73 97.0214C770.271 97.0295 767.82 97.3045 765.42 97.8414C763.096 98.3119 760.859 99.1419 758.79 100.301V147.041Z" fill="#006CB7"/>
<path d="M806.77 147.041C805.35 147.395 803.911 147.669 802.46 147.861C800.446 148.143 798.414 148.28 796.38 148.271C791.82 148.271 788.54 147.518 786.54 146.011C784.54 144.505 783.54 141.611 783.54 137.331V96.7414C783.484 94.2835 784.201 91.87 785.59 89.8414C787.084 87.764 788.99 86.0176 791.19 84.7114C794.657 82.6913 798.414 81.2173 802.33 80.3414C806.7 79.3264 811.174 78.823 815.66 78.8414C825.593 78.8414 830.56 82.3481 830.56 89.3614C830.574 90.9149 830.341 92.4608 829.87 93.9414C829.482 95.2138 828.931 96.4306 828.23 97.5614C825.75 97.1418 823.235 96.961 820.72 97.0214C818.258 97.0299 815.803 97.3048 813.4 97.8414C811.079 98.3137 808.846 99.1436 806.78 100.301L806.77 147.041Z" fill="#006CB7"/>
<path d="M850.23 123.171C850.772 124.699 851.621 126.1 852.725 127.286C853.83 128.473 855.165 129.421 856.65 130.071C859.847 131.436 863.294 132.118 866.77 132.071C870.462 132.092 874.138 131.611 877.7 130.641C880.619 129.906 883.424 128.779 886.04 127.291C887.55 128.265 888.814 129.576 889.73 131.121C890.706 132.677 891.226 134.475 891.23 136.311C891.281 138.432 890.607 140.506 889.32 142.191C887.869 143.965 886.019 145.37 883.92 146.291C881.29 147.474 878.506 148.278 875.65 148.681C872.168 149.203 868.651 149.453 865.13 149.431C860.043 149.481 854.979 148.722 850.13 147.181C845.702 145.786 841.614 143.48 838.13 140.411C834.669 137.275 831.959 133.399 830.2 129.071C828.189 123.982 827.214 118.542 827.33 113.071C827.194 107.748 828.197 102.456 830.27 97.5514C832.054 93.4699 834.713 89.8306 838.06 86.8913C841.276 84.1229 845.017 82.0313 849.06 80.7414C853.123 79.4215 857.368 78.7466 861.64 78.7414C866.132 78.6839 870.598 79.4255 874.83 80.9314C878.593 82.2701 882.071 84.3056 885.08 86.9314C887.934 89.4624 890.198 92.5894 891.71 96.0914C893.282 99.7615 894.072 103.719 894.03 107.711C894.03 110.798 893.164 113.165 891.43 114.811C889.402 116.587 886.872 117.687 884.19 117.961L850.23 123.171ZM861.85 95.7014C858.662 95.6003 855.556 96.7238 853.17 98.8414C850.722 101.182 849.235 104.352 849 107.731L872.23 103.901C872.124 102.927 871.847 101.979 871.41 101.101C870.934 100.107 870.288 99.2033 869.5 98.4314C868.603 97.5548 867.534 96.8738 866.36 96.4314C864.919 95.8926 863.389 95.6281 861.85 95.6514V95.7014Z" fill="#006CB7"/>
<path d="M221.57 182.471V192.941L220.79 193.161C220.44 193.244 220.08 193.284 219.72 193.281C218.29 193.281 217.57 192.681 217.57 191.481V165.571C217.54 165.139 217.68 164.712 217.96 164.381C218.301 164.057 218.722 163.829 219.18 163.721C220.3 163.398 221.449 163.187 222.61 163.091C223.96 162.961 225.27 162.891 226.53 162.891C230.65 162.891 233.67 163.761 235.53 165.501C236.477 166.397 237.221 167.485 237.711 168.693C238.201 169.9 238.426 171.199 238.37 172.501C238.442 173.848 238.223 175.195 237.728 176.449C237.232 177.704 236.473 178.837 235.5 179.771C233.56 181.571 230.55 182.471 226.5 182.471H221.57ZM226.24 179.161C228.361 179.282 230.464 178.717 232.24 177.551C232.978 176.956 233.559 176.189 233.933 175.318C234.306 174.446 234.459 173.496 234.38 172.551C234.456 171.637 234.306 170.718 233.946 169.875C233.585 169.031 233.023 168.288 232.31 167.711C230.551 166.581 228.477 166.041 226.39 166.171C225.52 166.171 224.65 166.221 223.79 166.301C222.93 166.381 222.16 166.481 221.48 166.611V179.171L226.24 179.161Z" fill="#A24298"/>
<path d="M264.42 181.791C264.442 183.464 264.179 185.128 263.64 186.711C263.165 188.097 262.41 189.371 261.42 190.451C260.455 191.5 259.265 192.317 257.94 192.841C254.991 193.95 251.739 193.95 248.79 192.841C247.459 192.313 246.26 191.497 245.28 190.451C244.281 189.374 243.518 188.101 243.04 186.711C242.502 185.128 242.238 183.464 242.26 181.791C242.236 180.116 242.51 178.45 243.07 176.871C243.561 175.481 244.33 174.205 245.33 173.121C246.309 172.08 247.504 171.264 248.83 170.731C251.749 169.625 254.972 169.625 257.89 170.731C259.215 171.257 260.404 172.074 261.37 173.121C262.36 174.211 263.125 175.485 263.62 176.871C264.172 178.452 264.443 180.117 264.42 181.791V181.791ZM253.36 173.171C252.374 173.126 251.391 173.309 250.487 173.706C249.583 174.104 248.784 174.704 248.15 175.461C246.923 177.367 246.27 179.585 246.27 181.851C246.27 184.118 246.923 186.336 248.15 188.241C248.819 188.958 249.628 189.528 250.527 189.919C251.426 190.309 252.395 190.511 253.375 190.511C254.355 190.511 255.325 190.309 256.223 189.919C257.122 189.528 257.931 188.958 258.6 188.241C259.931 186.39 260.584 184.137 260.45 181.861C260.588 179.58 259.923 177.323 258.57 175.481C257.943 174.716 257.145 174.108 256.24 173.707C255.335 173.306 254.349 173.122 253.36 173.171V173.171Z" fill="#A24298"/>
<path d="M286.33 187.051C286.371 187.988 286.184 188.92 285.785 189.769C285.386 190.617 284.788 191.356 284.04 191.921C282.52 193.081 280.31 193.671 277.42 193.671C276.276 193.679 275.133 193.571 274.01 193.351C273.095 193.178 272.202 192.899 271.35 192.521C270.718 192.241 270.141 191.848 269.65 191.361C269.284 191.009 269.066 190.529 269.04 190.021C269.042 189.626 269.153 189.238 269.36 188.901C269.595 188.518 269.922 188.198 270.31 187.971C271.262 188.667 272.292 189.248 273.38 189.701C274.648 190.223 276.01 190.478 277.38 190.451C280.76 190.451 282.44 189.321 282.44 187.051C282.44 185.205 281.32 184.001 279.08 183.441L275.08 182.371C273.452 182.042 271.951 181.259 270.75 180.111C269.816 179.059 269.325 177.687 269.38 176.281C269.379 175.445 269.553 174.617 269.89 173.851C270.261 173.072 270.805 172.388 271.48 171.851C272.27 171.231 273.169 170.763 274.13 170.471C275.338 170.101 276.597 169.926 277.86 169.951C279.744 169.882 281.621 170.223 283.36 170.951C284.76 171.621 285.45 172.391 285.45 173.271C285.46 173.667 285.352 174.057 285.14 174.391C284.929 174.712 284.631 174.966 284.28 175.121C283.492 174.626 282.662 174.201 281.8 173.851C280.591 173.374 279.299 173.143 278 173.171C276.785 173.112 275.578 173.4 274.52 174.001C274.116 174.239 273.784 174.58 273.557 174.99C273.33 175.4 273.217 175.863 273.23 176.331C273.214 177.036 273.476 177.719 273.96 178.231C274.643 178.85 275.491 179.256 276.4 179.401L279.76 180.231C281.617 180.59 283.343 181.44 284.76 182.691C285.303 183.275 285.721 183.961 285.991 184.711C286.261 185.46 286.376 186.256 286.33 187.051V187.051Z" fill="#A24298"/>
<path d="M299.91 193.671C297.957 193.758 296.027 193.23 294.39 192.161C292.984 191.155 292.277 189.488 292.27 187.161V164.011C292.43 163.951 292.68 163.881 293.02 163.791C293.381 163.71 293.75 163.67 294.12 163.671C295.49 163.671 296.17 164.261 296.17 165.421V171.031H304.17C304.291 171.236 304.389 171.454 304.46 171.681C304.562 171.971 304.612 172.275 304.61 172.581C304.61 173.691 304.12 174.241 303.15 174.241H296.15V186.901C296.096 187.414 296.167 187.931 296.357 188.41C296.547 188.889 296.85 189.315 297.24 189.651C298.159 190.24 299.241 190.521 300.33 190.451C300.958 190.444 301.581 190.346 302.18 190.161C302.776 190.006 303.35 189.777 303.89 189.481C304.1 189.699 304.278 189.945 304.42 190.211C304.589 190.517 304.676 190.862 304.67 191.211C304.65 191.596 304.52 191.966 304.295 192.279C304.069 192.591 303.759 192.831 303.4 192.971C302.31 193.481 301.113 193.721 299.91 193.671V193.671Z" fill="#A24298"/>
<path d="M309.65 181.931C309.549 181.706 309.469 181.471 309.41 181.231C309.338 180.954 309.305 180.668 309.31 180.381C309.281 180.152 309.306 179.919 309.382 179.701C309.458 179.483 309.584 179.285 309.75 179.124C309.916 178.963 310.117 178.843 310.338 178.773C310.558 178.703 310.792 178.685 311.02 178.721H322.65C322.72 178.911 322.79 179.141 322.87 179.401C322.955 179.67 322.998 179.95 323 180.231C323.034 180.463 323.013 180.7 322.939 180.923C322.865 181.145 322.74 181.347 322.573 181.512C322.407 181.678 322.204 181.802 321.982 181.874C321.759 181.947 321.522 181.967 321.29 181.931H309.65Z" fill="#A24298"/>
<path d="M338.87 193.671C337.785 193.678 336.703 193.547 335.65 193.281C334.788 193.075 333.955 192.762 333.17 192.351V201.801C332.933 201.894 332.689 201.968 332.44 202.021C332.09 202.105 331.73 202.145 331.37 202.141C329.98 202.141 329.28 201.541 329.28 200.341V174.631C329.253 174.09 329.371 173.552 329.62 173.071C329.987 172.559 330.471 172.141 331.03 171.851C332.036 171.314 333.087 170.866 334.17 170.511C335.516 170.089 336.92 169.883 338.33 169.901C339.861 169.891 341.383 170.124 342.84 170.591C344.201 171.013 345.449 171.738 346.49 172.711C347.561 173.743 348.393 174.995 348.93 176.381C349.565 178.095 349.867 179.914 349.82 181.741C349.859 183.528 349.588 185.307 349.02 187.001C348.549 188.392 347.778 189.662 346.76 190.721C345.78 191.711 344.591 192.47 343.28 192.941C341.864 193.441 340.372 193.688 338.87 193.671ZM338.33 190.451C339.335 190.497 340.34 190.338 341.282 189.984C342.224 189.63 343.084 189.088 343.81 188.391C345.19 187.001 345.88 184.791 345.88 181.741C345.912 180.383 345.705 179.029 345.27 177.741C344.933 176.734 344.368 175.817 343.62 175.061C342.942 174.392 342.117 173.892 341.21 173.601C340.28 173.302 339.308 173.153 338.33 173.161C337.312 173.129 336.296 173.278 335.33 173.601C334.574 173.875 333.842 174.209 333.14 174.601V188.971C333.811 189.451 334.549 189.828 335.33 190.091C336.304 190.376 337.317 190.497 338.33 190.451V190.451Z" fill="#A24298"/>
<path d="M359.76 192.941C359.6 193.001 359.36 193.071 359.03 193.161C358.68 193.245 358.32 193.285 357.96 193.281C356.56 193.281 355.87 192.691 355.87 191.531V175.021C355.836 174.401 355.978 173.784 356.28 173.241C356.647 172.718 357.12 172.278 357.67 171.951C358.736 171.304 359.892 170.819 361.1 170.511C362.699 170.089 364.347 169.884 366 169.901C368.59 169.901 369.89 170.551 369.89 171.851C369.894 172.158 369.843 172.463 369.74 172.751C369.658 173.01 369.53 173.25 369.36 173.461C369.03 173.401 368.61 173.331 368.09 173.261C367.562 173.2 367.031 173.17 366.5 173.171C365.169 173.15 363.841 173.305 362.55 173.631C361.57 173.884 360.623 174.253 359.73 174.731L359.76 192.941Z" fill="#A24298"/>
<path d="M394.87 181.791C394.892 183.464 394.629 185.128 394.09 186.711C393.615 188.095 392.863 189.368 391.88 190.451C390.911 191.5 389.718 192.317 388.39 192.841C385.441 193.95 382.189 193.95 379.24 192.841C377.909 192.313 376.71 191.497 375.73 190.451C374.731 189.375 373.968 188.101 373.49 186.711C372.952 185.128 372.688 183.464 372.71 181.791C372.686 180.116 372.96 178.45 373.52 176.871C374.011 175.481 374.78 174.205 375.78 173.121C376.761 172.077 377.959 171.261 379.29 170.731C382.19 169.637 385.39 169.637 388.29 170.731C389.616 171.259 390.809 172.076 391.78 173.121C392.763 174.214 393.524 175.488 394.02 176.871C394.589 178.449 394.877 180.114 394.87 181.791V181.791ZM383.82 173.171C382.833 173.125 381.848 173.308 380.942 173.705C380.037 174.103 379.235 174.703 378.6 175.461C377.373 177.367 376.72 179.585 376.72 181.851C376.72 184.118 377.373 186.336 378.6 188.241C379.24 188.997 380.046 189.595 380.955 189.987C381.864 190.379 382.852 190.555 383.84 190.501C384.826 190.553 385.811 190.374 386.715 189.978C387.62 189.583 388.419 188.981 389.05 188.221C390.381 186.37 391.034 184.117 390.9 181.841C391.038 179.56 390.373 177.303 389.02 175.461C388.392 174.7 387.595 174.097 386.692 173.699C385.789 173.301 384.806 173.121 383.82 173.171V173.171Z" fill="#A24298"/>
<path d="M411.33 173.171C410.28 173.157 409.238 173.347 408.26 173.731C407.334 174.093 406.501 174.657 405.82 175.381C405.106 176.172 404.561 177.102 404.22 178.111C403.81 179.311 403.61 180.573 403.63 181.841C403.63 184.635 404.33 186.768 405.73 188.241C406.453 188.986 407.327 189.569 408.292 189.95C409.258 190.331 410.293 190.502 411.33 190.451C412.491 190.487 413.649 190.3 414.74 189.901C415.592 189.551 416.406 189.116 417.17 188.601C417.509 188.784 417.808 189.032 418.05 189.331C418.279 189.644 418.399 190.024 418.39 190.411C418.38 190.885 418.187 191.337 417.85 191.671C417.427 192.098 416.924 192.438 416.37 192.671C415.653 192.994 414.902 193.232 414.13 193.381C413.209 193.567 412.27 193.658 411.33 193.651C409.741 193.669 408.159 193.422 406.65 192.921C405.275 192.463 404.014 191.716 402.95 190.731C401.872 189.709 401.035 188.458 400.5 187.071C399.878 185.4 399.579 183.625 399.62 181.841C399.584 180.068 399.897 178.304 400.54 176.651C401.107 175.251 401.955 173.982 403.03 172.921C404.079 171.911 405.334 171.139 406.71 170.661C408.156 170.152 409.678 169.895 411.21 169.901C412.15 169.9 413.088 169.99 414.01 170.171C414.782 170.319 415.529 170.575 416.23 170.931C416.772 171.201 417.257 171.57 417.66 172.021C417.973 172.36 418.154 172.8 418.17 173.261C418.172 173.623 418.052 173.975 417.83 174.261C417.597 174.557 417.295 174.79 416.95 174.941C416.218 174.442 415.437 174.016 414.62 173.671C413.565 173.297 412.449 173.127 411.33 173.171V173.171Z" fill="#A24298"/>
<path d="M426.37 184.081C427.25 188.335 430.044 190.458 434.75 190.451C436.016 190.473 437.274 190.242 438.45 189.771C439.391 189.41 440.276 188.919 441.08 188.311C441.428 188.481 441.722 188.743 441.928 189.07C442.135 189.397 442.246 189.775 442.25 190.161C442.241 190.411 442.183 190.656 442.078 190.883C441.973 191.109 441.824 191.313 441.64 191.481C441.16 191.948 440.601 192.327 439.99 192.601C439.207 192.947 438.389 193.209 437.55 193.381C436.563 193.58 435.557 193.677 434.55 193.671C430.79 193.671 427.81 192.671 425.62 190.601C423.43 188.531 422.33 185.601 422.33 181.601C422.301 179.919 422.576 178.246 423.14 176.661C423.624 175.295 424.383 174.043 425.37 172.981C426.337 171.973 427.511 171.185 428.81 170.671C430.187 170.122 431.658 169.847 433.14 169.861C434.508 169.853 435.866 170.104 437.14 170.601C438.339 171.056 439.426 171.762 440.33 172.671C441.235 173.574 441.949 174.648 442.43 175.831C442.939 177.103 443.193 178.462 443.18 179.831C443.209 180.106 443.18 180.384 443.096 180.648C443.011 180.911 442.873 181.154 442.69 181.361C442.314 181.698 441.834 181.895 441.33 181.921L426.37 184.081ZM433.09 173.081C432.171 173.055 431.258 173.227 430.411 173.584C429.564 173.941 428.803 174.475 428.18 175.151C426.8 176.807 426.087 178.918 426.18 181.071L439.5 179.171C439.406 177.529 438.745 175.971 437.63 174.761C437.032 174.18 436.32 173.729 435.538 173.438C434.757 173.147 433.923 173.022 433.09 173.071V173.081Z" fill="#A24298"/>
<path d="M465.04 187.051C465.079 187.987 464.891 188.919 464.492 189.767C464.093 190.615 463.496 191.354 462.75 191.921C461.22 193.081 459.02 193.671 456.13 193.671C454.986 193.679 453.843 193.571 452.72 193.351C451.804 193.179 450.911 192.901 450.06 192.521C449.428 192.241 448.851 191.848 448.36 191.361C447.994 191.009 447.776 190.529 447.75 190.021C447.752 189.626 447.863 189.238 448.07 188.901C448.305 188.518 448.632 188.198 449.02 187.971C449.969 188.665 450.996 189.246 452.08 189.701C453.349 190.221 454.71 190.476 456.08 190.451C459.447 190.451 461.134 189.318 461.14 187.051C461.14 185.205 460.02 184.001 457.78 183.441L453.78 182.371C452.151 182.045 450.649 181.261 449.45 180.111C448.516 179.059 448.025 177.687 448.08 176.281C448.079 175.445 448.253 174.617 448.59 173.851C448.958 173.07 449.502 172.386 450.18 171.851C450.97 171.231 451.869 170.763 452.83 170.471C454.038 170.101 455.297 169.926 456.56 169.951C458.444 169.882 460.321 170.223 462.06 170.951C463.46 171.621 464.15 172.391 464.15 173.271C464.16 173.667 464.052 174.057 463.84 174.391C463.63 174.712 463.331 174.966 462.98 175.121C462.192 174.626 461.363 174.201 460.5 173.851C459.291 173.374 457.999 173.143 456.7 173.171C455.485 173.112 454.278 173.4 453.22 174.001C452.878 174.22 452.587 174.511 452.369 174.854C452.151 175.197 452.01 175.583 451.957 175.986C451.903 176.389 451.939 176.799 452.06 177.187C452.182 177.574 452.386 177.931 452.66 178.231C453.343 178.85 454.191 179.256 455.1 179.401L458.46 180.231C460.317 180.59 462.043 181.44 463.46 182.691C464.004 183.274 464.425 183.96 464.697 184.71C464.968 185.459 465.085 186.256 465.04 187.051V187.051Z" fill="#A24298"/>
<path d="M486.8 187.051C486.841 187.988 486.654 188.92 486.255 189.769C485.856 190.617 485.258 191.356 484.51 191.921C482.99 193.081 480.78 193.671 477.89 193.671C476.746 193.678 475.603 193.571 474.48 193.351C473.568 193.178 472.678 192.9 471.83 192.521C471.195 192.246 470.618 191.853 470.13 191.361C469.764 191.009 469.546 190.529 469.52 190.021C469.519 189.627 469.626 189.239 469.83 188.901C470.068 188.52 470.394 188.201 470.78 187.971C471.733 188.665 472.763 189.246 473.85 189.701C475.119 190.221 476.48 190.476 477.85 190.451C481.23 190.451 482.92 189.318 482.92 187.051C482.92 185.205 481.8 184.001 479.56 183.441L475.56 182.371C473.929 182.042 472.425 181.259 471.22 180.111C470.289 179.058 469.802 177.686 469.86 176.281C469.859 175.445 470.033 174.617 470.37 173.851C470.735 173.068 471.279 172.383 471.96 171.851C472.749 171.229 473.648 170.761 474.61 170.471C475.814 170.101 477.07 169.925 478.33 169.951C480.218 169.881 482.098 170.222 483.84 170.951C485.23 171.621 485.93 172.391 485.93 173.271C485.937 173.668 485.826 174.058 485.61 174.391C485.402 174.711 485.107 174.964 484.76 175.121C483.972 174.626 483.143 174.201 482.28 173.851C481.071 173.374 479.779 173.143 478.48 173.171C477.265 173.112 476.058 173.4 475 174.001C474.658 174.22 474.367 174.511 474.149 174.854C473.931 175.197 473.79 175.583 473.737 175.986C473.683 176.389 473.719 176.799 473.84 177.187C473.962 177.574 474.166 177.931 474.44 178.231C475.118 178.852 475.963 179.259 476.87 179.401L480.23 180.231C482.087 180.59 483.813 181.439 485.23 182.691C485.771 183.276 486.189 183.963 486.459 184.712C486.728 185.461 486.845 186.256 486.8 187.051V187.051Z" fill="#A24298"/>
<path d="M492.35 163.431C492.344 163.11 492.404 162.791 492.527 162.493C492.649 162.196 492.83 161.926 493.06 161.701C493.301 161.465 493.587 161.28 493.902 161.158C494.217 161.036 494.553 160.979 494.89 160.991C495.223 160.97 495.557 161.017 495.871 161.13C496.185 161.243 496.472 161.419 496.716 161.647C496.959 161.875 497.153 162.151 497.285 162.457C497.418 162.763 497.486 163.093 497.486 163.426C497.486 163.76 497.418 164.09 497.285 164.396C497.153 164.702 496.959 164.978 496.716 165.206C496.472 165.434 496.185 165.61 495.871 165.723C495.557 165.836 495.223 165.883 494.89 165.861C494.554 165.876 494.218 165.821 493.903 165.701C493.588 165.58 493.301 165.397 493.06 165.161C492.83 164.937 492.649 164.667 492.527 164.37C492.404 164.072 492.344 163.753 492.35 163.431V163.431ZM496.84 192.941L496.11 193.161C495.756 193.244 495.394 193.284 495.03 193.281C493.64 193.281 492.94 192.691 492.94 191.531V170.641C493.533 170.422 494.158 170.304 494.79 170.291C496.15 170.291 496.84 170.891 496.84 172.101V192.941Z" fill="#A24298"/>
<path d="M518.5 174.391C517.325 173.493 515.868 173.042 514.39 173.121C513.219 173.103 512.052 173.265 510.93 173.601C510.032 173.884 509.167 174.262 508.35 174.731V192.941L507.62 193.161C507.27 193.244 506.91 193.284 506.55 193.281C505.15 193.281 504.45 192.691 504.45 191.531V174.921C504.427 174.333 504.572 173.75 504.87 173.241C505.242 172.708 505.732 172.267 506.3 171.951C507.357 171.343 508.486 170.869 509.66 170.541C511.197 170.099 512.791 169.883 514.39 169.901C516.882 169.759 519.349 170.464 521.39 171.901C523.1 173.231 523.95 175.331 523.95 178.181V192.941C523.79 193.001 523.54 193.071 523.2 193.161C522.872 193.238 522.537 193.278 522.2 193.281C520.8 193.281 520.11 192.691 520.11 191.531V178.381C520.165 177.638 520.048 176.891 519.769 176.199C519.49 175.508 519.056 174.889 518.5 174.391V174.391Z" fill="#A24298"/>
<path d="M546.26 190.701C545.581 191.221 544.816 191.617 544 191.871C542.886 192.214 541.725 192.376 540.56 192.351C539.204 192.355 537.855 192.153 536.56 191.751C535.315 191.341 534.177 190.658 533.23 189.751C532.218 188.772 531.436 187.58 530.94 186.261C530.329 184.594 530.041 182.826 530.09 181.051C530.055 179.394 530.333 177.745 530.91 176.191C531.403 174.876 532.184 173.687 533.197 172.713C534.209 171.739 535.427 171.004 536.76 170.561C538.22 170.074 539.751 169.834 541.29 169.851C542.68 169.839 544.064 170.028 545.4 170.411C546.507 170.725 547.564 171.193 548.54 171.801C548.995 172.099 549.398 172.471 549.73 172.901C550.049 173.328 550.215 173.849 550.2 174.381V193.961C550.242 195.375 549.966 196.78 549.39 198.071C548.887 199.157 548.116 200.096 547.15 200.801C546.136 201.53 544.987 202.05 543.77 202.331C542.399 202.668 540.992 202.833 539.58 202.821C538.16 202.851 536.742 202.679 535.37 202.311C534.552 202.103 533.76 201.801 533.01 201.411C532.594 201.235 532.235 200.944 531.977 200.572C531.719 200.2 531.571 199.763 531.55 199.311C531.536 198.909 531.644 198.511 531.86 198.171C532.065 197.869 532.344 197.625 532.67 197.461C533.549 198.082 534.517 198.568 535.54 198.901C536.826 199.348 538.179 199.571 539.54 199.561C541.317 199.683 543.081 199.193 544.54 198.171C545.152 197.613 545.627 196.921 545.927 196.149C546.227 195.377 546.345 194.546 546.27 193.721L546.26 190.701ZM541 189.171C542.096 189.214 543.187 189.005 544.19 188.561C544.948 188.207 545.646 187.738 546.26 187.171V174.481C544.763 173.548 543.024 173.075 541.26 173.121C540.288 173.075 539.318 173.229 538.408 173.573C537.498 173.917 536.668 174.444 535.97 175.121C534.637 176.455 533.97 178.438 533.97 181.071C533.94 182.333 534.123 183.59 534.51 184.791C534.812 185.727 535.318 186.584 535.99 187.301C536.612 187.945 537.381 188.429 538.23 188.711C539.122 189.016 540.058 189.171 541 189.171V189.171Z" fill="#A24298"/>
<path d="M571.78 192.941L570.99 193.161C570.643 193.244 570.287 193.284 569.93 193.281C568.5 193.281 567.78 192.681 567.78 191.481V165.571C567.75 165.139 567.89 164.712 568.17 164.381C568.511 164.057 568.932 163.829 569.39 163.721C570.526 163.395 571.692 163.184 572.87 163.091C574.25 162.961 575.59 162.891 576.87 162.891C580.963 162.891 584.007 163.711 586 165.351C587.007 166.207 587.802 167.284 588.323 168.499C588.843 169.713 589.075 171.032 589 172.351C589.064 174.373 588.46 176.359 587.28 178.001C585.946 179.642 584.102 180.79 582.04 181.261L584.5 184.371L586.82 187.311C587.55 188.241 588.2 189.071 588.76 189.821L590.1 191.581C589.988 192.108 589.686 192.575 589.25 192.891C588.869 193.192 588.402 193.364 587.916 193.382C587.431 193.4 586.953 193.263 586.55 192.991C586.114 192.647 585.736 192.235 585.43 191.771L578.32 181.841H571.8L571.78 192.941ZM577.33 178.531C579.331 178.647 581.313 178.099 582.97 176.971C583.653 176.418 584.191 175.708 584.539 174.902C584.887 174.096 585.035 173.217 584.97 172.341C585.027 171.457 584.862 170.572 584.488 169.768C584.114 168.964 583.544 168.267 582.83 167.741C580.991 166.607 578.847 166.07 576.69 166.201C575.81 166.201 574.93 166.251 574.04 166.331C573.15 166.411 572.36 166.511 571.68 166.641V178.531H577.33Z" fill="#A24298"/>
<path d="M598.07 184.081C598.95 188.335 601.74 190.458 606.44 190.451C607.71 190.473 608.971 190.242 610.15 189.771C611.088 189.41 611.97 188.919 612.77 188.311C613.118 188.481 613.412 188.743 613.618 189.07C613.825 189.397 613.936 189.775 613.94 190.161C613.923 190.663 613.707 191.138 613.34 191.481C612.858 191.95 612.296 192.33 611.68 192.601C610.897 192.949 610.079 193.21 609.24 193.381C608.253 193.58 607.247 193.677 606.24 193.671C602.474 193.671 599.497 192.648 597.31 190.601C595.124 188.555 594.027 185.555 594.02 181.601C593.994 179.92 594.264 178.248 594.82 176.661C595.308 175.295 596.07 174.042 597.06 172.981C598.024 171.973 599.194 171.185 600.49 170.671C601.871 170.122 603.345 169.847 604.83 169.861C606.198 169.854 607.555 170.105 608.83 170.601C610.028 171.058 611.115 171.764 612.02 172.671C612.922 173.574 613.632 174.649 614.11 175.831C614.627 177.101 614.885 178.461 614.87 179.831C614.899 180.106 614.87 180.384 614.786 180.648C614.701 180.911 614.563 181.154 614.38 181.361C614.003 181.696 613.524 181.894 613.02 181.921L598.07 184.081ZM604.79 173.081C603.87 173.057 602.955 173.228 602.107 173.585C601.258 173.942 600.496 174.476 599.87 175.151C598.486 176.805 597.772 178.917 597.87 181.071L611.22 179.171C611.122 177.528 610.458 175.97 609.34 174.761C608.741 174.178 608.027 173.727 607.244 173.436C606.46 173.145 605.624 173.021 604.79 173.071V173.081Z" fill="#A24298"/>
<path d="M630.99 173.171C629.94 173.157 628.898 173.347 627.92 173.731C626.994 174.093 626.161 174.657 625.48 175.381C624.766 176.172 624.221 177.102 623.88 178.111C623.47 179.311 623.27 180.573 623.29 181.841C623.29 184.635 623.99 186.768 625.39 188.241C626.113 188.986 626.987 189.569 627.952 189.95C628.918 190.331 629.953 190.502 630.99 190.451C632.152 190.487 633.309 190.3 634.4 189.901C635.252 189.551 636.066 189.116 636.83 188.601C637.169 188.784 637.468 189.032 637.71 189.331C637.939 189.644 638.059 190.024 638.05 190.411C638.04 190.885 637.847 191.337 637.51 191.671C637.087 192.098 636.584 192.438 636.03 192.671C635.313 192.994 634.562 193.232 633.79 193.381C632.869 193.567 631.93 193.658 630.99 193.651C629.401 193.669 627.819 193.422 626.31 192.921C624.935 192.463 623.674 191.716 622.61 190.731C621.536 189.701 620.706 188.444 620.18 187.051C619.558 185.38 619.259 183.605 619.3 181.821C619.264 180.048 619.577 178.285 620.22 176.631C620.787 175.231 621.635 173.962 622.71 172.901C623.759 171.891 625.014 171.119 626.39 170.641C627.836 170.132 629.358 169.875 630.89 169.881C631.83 169.88 632.768 169.97 633.69 170.151C634.462 170.299 635.21 170.555 635.91 170.911C636.452 171.181 636.937 171.551 637.34 172.001C637.653 172.341 637.834 172.78 637.85 173.241C637.852 173.603 637.732 173.955 637.51 174.241C637.277 174.537 636.975 174.77 636.63 174.921C635.898 174.422 635.117 173.996 634.3 173.651C633.238 173.281 632.114 173.118 630.99 173.171V173.171Z" fill="#A24298"/>
<path d="M664.15 181.791C664.172 183.464 663.909 185.128 663.37 186.711C662.895 188.095 662.143 189.368 661.16 190.451C660.191 191.5 658.998 192.317 657.67 192.841C654.721 193.95 651.469 193.95 648.52 192.841C647.189 192.313 645.99 191.497 645.01 190.451C644.011 189.375 643.248 188.101 642.77 186.711C642.232 185.128 641.968 183.464 641.99 181.791C641.966 180.116 642.24 178.45 642.8 176.871C643.291 175.481 644.06 174.205 645.06 173.121C646.041 172.077 647.239 171.261 648.57 170.731C651.47 169.637 654.67 169.637 657.57 170.731C658.896 171.259 660.089 172.076 661.06 173.121C662.043 174.214 662.804 175.488 663.3 176.871C663.869 178.449 664.157 180.114 664.15 181.791V181.791ZM653.15 173.121C652.163 173.075 651.178 173.258 650.272 173.655C649.367 174.053 648.565 174.654 647.93 175.411C646.703 177.317 646.05 179.535 646.05 181.801C646.05 184.068 646.703 186.286 647.93 188.191C648.57 188.947 649.376 189.545 650.285 189.937C651.194 190.329 652.182 190.505 653.17 190.451C654.156 190.503 655.141 190.324 656.045 189.928C656.95 189.533 657.749 188.931 658.38 188.171C659.711 186.32 660.364 184.067 660.23 181.791C660.368 179.51 659.703 177.253 658.35 175.411C657.712 174.652 656.904 174.054 655.992 173.665C655.08 173.276 654.09 173.107 653.1 173.171L653.15 173.121Z" fill="#A24298"/>
<path d="M697.36 174.241C696.313 173.45 695.021 173.053 693.71 173.121C691.61 173.118 689.588 173.919 688.06 175.361C688.256 176.041 688.353 176.744 688.35 177.451V192.941C688.19 193.001 687.93 193.071 687.59 193.161C687.262 193.238 686.927 193.278 686.59 193.281C685.19 193.281 684.49 192.691 684.49 191.531V177.741C684.544 177.093 684.45 176.441 684.214 175.834C683.979 175.228 683.608 174.683 683.13 174.241C682.067 173.444 680.757 173.047 679.43 173.121C678.427 173.116 677.43 173.278 676.48 173.601C675.653 173.887 674.861 174.266 674.12 174.731V192.941C673.96 193.001 673.72 193.071 673.39 193.161C673.04 193.245 672.68 193.285 672.32 193.281C670.92 193.281 670.23 192.691 670.23 191.531V174.921C670.209 174.35 670.351 173.785 670.64 173.291C671.021 172.749 671.512 172.292 672.08 171.951C673.122 171.326 674.241 170.842 675.41 170.511C676.73 170.112 678.101 169.907 679.48 169.901C680.925 169.878 682.362 170.119 683.72 170.611C684.817 170.988 685.792 171.655 686.54 172.541C687.475 171.735 688.545 171.098 689.7 170.661C691.086 170.137 692.558 169.879 694.04 169.901C696.288 169.784 698.507 170.449 700.32 171.781C701.88 173.035 702.66 174.958 702.66 177.551V192.941C702.49 193.001 702.24 193.071 701.9 193.161C701.556 193.242 701.204 193.282 700.85 193.281C699.46 193.281 698.76 192.691 698.76 191.531V177.741C698.809 177.09 698.709 176.436 698.466 175.829C698.224 175.222 697.845 174.679 697.36 174.241V174.241Z" fill="#A24298"/>
<path d="M712.7 184.081C713.57 188.331 716.37 190.451 721.07 190.451C722.337 190.474 723.595 190.243 724.77 189.771C725.712 189.413 726.598 188.921 727.4 188.311C727.748 188.481 728.042 188.743 728.248 189.07C728.455 189.397 728.566 189.775 728.57 190.161C728.561 190.411 728.503 190.656 728.398 190.883C728.293 191.109 728.144 191.313 727.96 191.481C727.483 191.953 726.924 192.332 726.31 192.601C725.527 192.949 724.709 193.21 723.87 193.381C722.883 193.58 721.877 193.677 720.87 193.671C717.1 193.671 714.13 192.671 711.93 190.601C709.73 188.531 708.65 185.601 708.65 181.601C708.618 179.92 708.889 178.247 709.45 176.661C709.938 175.295 710.7 174.042 711.69 172.981C712.654 171.973 713.824 171.185 715.12 170.671C716.501 170.122 717.975 169.847 719.46 169.861C720.828 169.854 722.185 170.105 723.46 170.601C724.657 171.061 725.743 171.766 726.65 172.671C727.552 173.574 728.262 174.649 728.74 175.831C729.257 177.101 729.515 178.461 729.5 179.831C729.529 180.106 729.5 180.384 729.416 180.648C729.331 180.911 729.193 181.154 729.01 181.361C728.632 181.694 728.153 181.892 727.65 181.921L712.7 184.081ZM719.42 173.081C718.499 173.059 717.583 173.234 716.734 173.595C715.886 173.955 715.124 174.493 714.5 175.171C713.116 176.825 712.402 178.937 712.5 181.091L725.85 179.171C725.747 177.529 725.084 175.973 723.97 174.761C723.371 174.178 722.657 173.727 721.874 173.436C721.09 173.145 720.254 173.021 719.42 173.071V173.081Z" fill="#A24298"/>
<path d="M749.24 174.391C748.065 173.493 746.608 173.042 745.13 173.121C743.959 173.103 742.792 173.265 741.67 173.601C740.772 173.884 739.907 174.262 739.09 174.731V192.941C738.93 193.001 738.68 193.071 738.36 193.161C738.01 193.244 737.65 193.284 737.29 193.281C735.89 193.281 735.2 192.691 735.2 191.531V174.921C735.174 174.334 735.316 173.751 735.61 173.241C735.987 172.708 736.479 172.267 737.05 171.951C738.102 171.341 739.228 170.867 740.4 170.541C741.937 170.099 743.531 169.884 745.13 169.901C747.622 169.763 750.088 170.467 752.13 171.901C753.83 173.231 754.68 175.331 754.68 178.181V192.941C754.52 193.001 754.27 193.071 753.93 193.161C753.602 193.238 753.267 193.278 752.93 193.281C751.54 193.281 750.84 192.691 750.84 191.531V178.381C750.898 177.638 750.784 176.891 750.506 176.199C750.229 175.507 749.796 174.889 749.24 174.391Z" fill="#A24298"/>
<path d="M781.21 189.331C781.243 189.866 781.099 190.397 780.8 190.841C780.436 191.273 779.999 191.639 779.51 191.921C778.64 192.439 777.705 192.839 776.73 193.111C775.386 193.503 773.99 193.692 772.59 193.671C770.959 193.687 769.334 193.458 767.77 192.991C766.373 192.571 765.085 191.847 764 190.871C762.911 189.864 762.075 188.613 761.56 187.221C760.407 183.724 760.407 179.949 761.56 176.451C762.069 175.055 762.874 173.786 763.92 172.731C764.907 171.758 766.104 171.026 767.42 170.591C768.812 170.124 770.272 169.891 771.74 169.901C772.753 169.905 773.761 170.036 774.74 170.291C775.624 170.523 776.476 170.858 777.28 171.291V161.501C777.525 161.413 777.776 161.339 778.03 161.281C778.358 161.205 778.693 161.164 779.03 161.161C780.42 161.161 781.12 161.741 781.12 162.911L781.21 189.331ZM777.32 174.771C776.621 174.297 775.869 173.904 775.08 173.601C774.141 173.266 773.148 173.103 772.15 173.121C771.181 173.115 770.218 173.27 769.3 173.581C768.405 173.891 767.597 174.409 766.94 175.091C766.208 175.882 765.653 176.82 765.31 177.841C764.877 179.178 764.67 180.577 764.7 181.981C764.7 184.981 765.42 187.131 766.84 188.461C768.406 189.847 770.452 190.565 772.54 190.461C773.487 190.488 774.431 190.366 775.34 190.101C776.04 189.88 776.711 189.578 777.34 189.201L777.32 174.771Z" fill="#A24298"/>
<path d="M796.6 169.901C798.988 169.778 801.35 170.445 803.32 171.801C804.974 173.068 805.8 175.068 805.8 177.801V189.341C805.838 189.914 805.694 190.484 805.39 190.971C805.053 191.403 804.631 191.76 804.15 192.021C803.174 192.555 802.131 192.958 801.05 193.221C799.612 193.58 798.133 193.752 796.65 193.731C793.65 193.731 791.23 193.131 789.56 191.931C788.737 191.345 788.075 190.56 787.636 189.649C787.197 188.738 786.996 187.731 787.05 186.721C786.988 185.804 787.146 184.885 787.511 184.041C787.876 183.198 788.438 182.453 789.15 181.871C790.888 180.667 792.928 179.974 795.04 179.871L801.95 179.191V177.821C802.008 177.157 801.906 176.489 801.654 175.871C801.402 175.254 801.006 174.705 800.5 174.271C799.331 173.459 797.922 173.064 796.5 173.151C795.194 173.141 793.895 173.337 792.65 173.731C791.546 174.082 790.472 174.524 789.44 175.051C789.176 174.818 788.938 174.557 788.73 174.271C788.52 173.981 788.411 173.63 788.42 173.271C788.402 172.873 788.522 172.481 788.76 172.161C789.054 171.812 789.419 171.529 789.83 171.331C790.78 170.862 791.789 170.525 792.83 170.331C794.068 170.054 795.332 169.91 796.6 169.901V169.901ZM796.6 190.501C797.741 190.528 798.879 190.39 799.98 190.091C800.653 189.912 801.299 189.643 801.9 189.291V182.231L795.9 182.861C794.572 182.905 793.278 183.298 792.15 184.001C791.742 184.309 791.417 184.713 791.204 185.177C790.991 185.642 790.897 186.152 790.93 186.661C790.904 187.216 791.02 187.767 791.267 188.264C791.513 188.761 791.883 189.187 792.34 189.501C793.642 190.265 795.145 190.614 796.65 190.501H796.6Z" fill="#A24298"/>
<path d="M820.6 193.671C818.647 193.758 816.717 193.23 815.08 192.161C813.667 191.155 812.96 189.488 812.96 187.161V164.011C813.12 163.951 813.37 163.881 813.71 163.791C814.071 163.71 814.44 163.67 814.81 163.671C816.17 163.671 816.86 164.261 816.86 165.421V171.031H824.86C824.981 171.236 825.079 171.454 825.15 171.681C825.252 171.971 825.302 172.275 825.3 172.581C825.3 173.691 824.81 174.241 823.84 174.241H816.84V186.901C816.786 187.414 816.857 187.931 817.047 188.41C817.237 188.889 817.54 189.315 817.93 189.651C818.849 190.24 819.931 190.521 821.02 190.451C821.648 190.443 822.27 190.346 822.87 190.161C823.466 190.006 824.04 189.777 824.58 189.481C824.79 189.699 824.968 189.945 825.11 190.211C825.279 190.517 825.366 190.862 825.36 191.211C825.34 191.596 825.21 191.966 824.985 192.279C824.759 192.591 824.449 192.831 824.09 192.971C823 193.481 821.803 193.721 820.6 193.671V193.671Z" fill="#A24298"/>
<path d="M830.68 163.431C830.674 163.11 830.734 162.791 830.857 162.493C830.979 162.196 831.16 161.926 831.39 161.701C831.631 161.465 831.917 161.28 832.232 161.158C832.547 161.036 832.883 160.979 833.22 160.991C833.553 160.97 833.887 161.017 834.201 161.13C834.515 161.243 834.802 161.419 835.046 161.647C835.289 161.875 835.483 162.151 835.615 162.457C835.748 162.763 835.816 163.093 835.816 163.426C835.816 163.76 835.748 164.09 835.615 164.396C835.483 164.702 835.289 164.978 835.046 165.206C834.802 165.434 834.515 165.61 834.201 165.723C833.887 165.836 833.553 165.883 833.22 165.861C832.884 165.876 832.548 165.821 832.233 165.701C831.918 165.58 831.631 165.397 831.39 165.161C831.16 164.937 830.979 164.667 830.857 164.37C830.734 164.072 830.674 163.753 830.68 163.431V163.431ZM835.16 192.941C835 193.001 834.76 193.071 834.43 193.161C834.08 193.245 833.72 193.285 833.36 193.281C831.97 193.281 831.27 192.691 831.27 191.531V170.641C831.863 170.422 832.488 170.304 833.12 170.291C834.48 170.291 835.12 170.891 835.12 172.101L835.16 192.941Z" fill="#A24298"/>
<path d="M863.65 181.791C863.672 183.464 863.409 185.128 862.87 186.711C862.395 188.095 861.643 189.368 860.66 190.451C859.691 191.5 858.498 192.317 857.17 192.841C854.221 193.95 850.969 193.95 848.02 192.841C846.689 192.313 845.49 191.497 844.51 190.451C843.511 189.374 842.748 188.101 842.27 186.711C841.732 185.128 841.468 183.464 841.49 181.791C841.466 180.116 841.74 178.45 842.3 176.871C842.791 175.481 843.56 174.205 844.56 173.121C845.543 172.08 846.741 171.264 848.07 170.731C850.989 169.625 854.211 169.625 857.13 170.731C858.452 171.262 859.641 172.078 860.61 173.121C861.593 174.214 862.354 175.488 862.85 176.871C863.402 178.452 863.673 180.117 863.65 181.791V181.791ZM852.65 173.121C851.664 173.074 850.68 173.256 849.776 173.653C848.872 174.051 848.072 174.653 847.44 175.411C846.209 177.315 845.555 179.534 845.555 181.801C845.555 184.069 846.209 186.287 847.44 188.191C848.081 188.946 848.887 189.543 849.796 189.935C850.705 190.327 851.692 190.503 852.68 190.451C853.666 190.503 854.651 190.324 855.555 189.928C856.46 189.533 857.259 188.931 857.89 188.171C859.221 186.32 859.874 184.067 859.74 181.791C859.878 179.51 859.213 177.253 857.86 175.411C857.221 174.651 856.412 174.052 855.498 173.663C854.584 173.273 853.591 173.105 852.6 173.171L852.65 173.121Z" fill="#A24298"/>
<path d="M883.73 174.391C882.555 173.493 881.098 173.042 879.62 173.121C878.449 173.103 877.282 173.265 876.16 173.601C875.263 173.888 874.399 174.266 873.58 174.731V192.941C873.42 193.001 873.18 193.071 872.85 193.161C872.5 193.245 872.14 193.285 871.78 193.281C870.39 193.281 869.69 192.691 869.69 191.531V174.921C869.664 174.334 869.806 173.751 870.1 173.241C870.477 172.708 870.969 172.267 871.54 171.951C872.595 171.34 873.724 170.866 874.9 170.541C876.434 170.099 878.024 169.883 879.62 169.901C882.112 169.763 884.578 170.467 886.62 171.901C888.32 173.231 889.18 175.331 889.18 178.181V192.941C889.01 193.001 888.76 193.071 888.42 193.161C888.092 193.238 887.757 193.278 887.42 193.281C886.03 193.281 885.33 192.691 885.33 191.531V178.381C885.388 177.638 885.274 176.891 884.996 176.199C884.719 175.507 884.286 174.889 883.73 174.391Z" fill="#A24298"/>
<path d="M64.2702 107.021H52.5602C49.669 117.781 49.2201 129.051 51.2462 140.007C53.2723 150.963 57.7221 161.327 64.2702 170.341V107.021Z" fill="#F58220"/>
<path d="M198.65 104.841L198.5 105.171C195.338 104.559 192.121 104.274 188.9 104.321C185.552 104.328 182.216 104.727 178.96 105.511C175.923 106.206 172.988 107.292 170.23 108.741V167.871C168.654 168.295 167.05 168.609 165.43 168.811C163.156 169.105 160.864 169.245 158.57 169.231C153.43 169.231 149.72 168.411 147.44 166.771C145.15 165.131 144.01 161.921 144.01 157.171V105.321C143.93 102.419 144.77 99.5666 146.41 97.1714C148.185 94.7194 150.463 92.674 153.09 91.1714C157.336 88.7139 161.927 86.9103 166.71 85.8214C172.18 84.4852 177.79 83.8136 183.42 83.8214C185.229 83.8148 187.036 83.9283 188.83 84.1614C181.709 73.7818 172.13 65.326 160.947 59.5483C149.764 53.7706 137.324 50.8505 124.738 51.0486C112.153 51.2466 99.8113 54.5566 88.8155 60.6833C77.8197 66.81 68.5112 75.5629 61.7202 86.1614H136.13C136.942 87.5645 137.612 89.0452 138.13 90.5813C138.776 92.5149 139.094 94.5429 139.07 96.5813C139.07 100.201 138.21 102.841 136.5 104.481C135.604 105.312 134.553 105.957 133.406 106.38C132.26 106.802 131.041 106.993 129.82 106.941H123.82V141.771C123.82 145.065 124.564 147.418 126.05 148.831C127.537 150.245 129.764 150.951 132.73 150.951C132.84 151.521 132.96 152.171 133.07 152.901C133.202 154.003 133.259 155.112 133.24 156.221C133.248 157.944 132.911 159.65 132.25 161.24C131.589 162.83 130.617 164.272 129.39 165.481C126.824 168.148 122.797 169.481 117.31 169.481C110.57 169.481 105.687 167.555 102.66 163.701C99.6336 159.848 98.1202 154.515 98.1202 147.701V107.021H89.8002V192.671C100.909 198.616 113.321 201.708 125.92 201.671C167.85 201.671 201.84 167.961 201.84 126.381C201.838 119.084 200.764 111.826 198.65 104.841Z" fill="#F58220"/>
</svg>
